<svg xmlns="http://www.w3.org/2000/svg" version="1.1" xmlns:xlink="http://www.w3.org/1999/xlink" xmlns:svgjs="http://svgjs.com/svgjs" width="1440" height="560" preserveAspectRatio="none" viewBox="0 0 1440 560"><g mask="url(&quot;#SvgjsMask1001&quot;)" fill="none"><path d="M527.89 611.91C685.13 588.8 742.79 233.4 1025.48 216.27 1308.18 199.14 1393.47 72.15 1523.08 70.67" stroke="rgba(51, 121, 194, 0.29)" stroke-width="2"></path><path d="M145.97 624.07C319.86 570.1 354.36 84.8 620.01 71.16 885.65 57.52 857.02 141.16 1094.04 141.16 1331.06 141.16 1448.29 71.35 1568.08 71.16" stroke="rgba(51, 121, 194, 0.29)" stroke-width="2"></path><path d="M885.95 569.02C1029.38 527.4 1078.42 124.41 1283.24 122.89 1488.07 121.37 1564.07 359.56 1680.54 369.29" stroke="rgba(51, 121, 194, 0.29)" stroke-width="2"></path><path d="M779.41 643.21C904.62 631.72 965.94 382.23 1202.05 370.58 1438.15 358.93 1512.49 221.63 1624.68 219.38" stroke="rgba(51, 121, 194, 0.29)" stroke-width="2"></path><path d="M679.08 604.82C768.46 596.77 727.23 424.37 981.39 411.29 1235.55 398.21 1420.71 148.46 1586.02 142.49" stroke="rgba(51, 121, 194, 0.29)" stroke-width="2"></path></g><defs><mask id="SvgjsMask1001"><rect width="1440" height="560" fill="#ffffff"></rect></mask></defs></svg>